<svg width="24" height="24" viewBox="0 0 24 24" fill="none" xmlns="http://www.w3.org/2000/svg">
<path d="M19.5034 12.75C19.5034 11.2666 19.0636 9.81659 18.2394 8.58323C17.4153 7.34986 16.244 6.38856 14.8735 5.82091C13.5031 5.25325 11.9951 5.10472 10.5402 5.39411C9.08539 5.6835 7.74901 6.39781 6.70012 7.4467C5.65123 8.4956 4.93692 9.83197 4.64753 11.2868C4.35814 12.7417 4.50667 14.2497 5.07432 15.6201C5.64198 16.9906 6.60328 18.1619 7.83664 18.986C9.07001 19.8101 10.5201 20.25 12.0034 20.25C13.9925 20.25 15.9002 19.4598 17.3067 18.0533C18.7132 16.6468 19.5034 14.7391 19.5034 12.75Z" stroke="#242424" stroke-miterlimit="10"/>
<path d="M6.66203 4.27547C6.26845 3.93868 5.76814 3.75248 5.25015 3.75L5.11937 3.75375C3.92171 3.82594 3.00015 4.875 3.00343 6.14062C3.00343 6.75984 3.22186 7.04859 3.51343 7.41703C3.53154 7.44071 3.55441 7.46032 3.58057 7.47461C3.60673 7.4889 3.6356 7.49755 3.6653 7.5H3.70655C3.72978 7.49958 3.7526 7.49383 3.77325 7.48318C3.79389 7.47253 3.81181 7.45728 3.82562 7.43859L6.67422 4.64062C6.69854 4.61603 6.71754 4.58669 6.73004 4.55443C6.74254 4.52217 6.74827 4.48769 6.74687 4.45312C6.74569 4.41927 6.73755 4.38603 6.72295 4.35546C6.70835 4.3249 6.68761 4.29766 6.66203 4.27547V4.27547Z" stroke="#242424" stroke-miterlimit="10"/>
<path d="M17.338 4.27547C17.7316 3.93868 18.2319 3.75248 18.7499 3.75L18.8806 3.75375C20.0783 3.82594 20.9999 4.875 20.9966 6.14063C20.9966 6.75984 20.7781 7.04859 20.4866 7.41703C20.4684 7.44062 20.4455 7.46015 20.4194 7.47435C20.3932 7.48856 20.3644 7.49714 20.3347 7.49953H20.2934C20.2702 7.49912 20.2474 7.49336 20.2268 7.48271C20.2061 7.47207 20.1882 7.45681 20.1744 7.43812L17.3258 4.64063C17.3015 4.61603 17.2825 4.58669 17.27 4.55443C17.2575 4.52217 17.2517 4.48769 17.2531 4.45313C17.2543 4.41927 17.2625 4.38603 17.2771 4.35546C17.2917 4.3249 17.3124 4.29767 17.338 4.27547V4.27547Z" stroke="#242424" stroke-miterlimit="10"/>
<path d="M12.0034 7.5V12.75H8.25342" stroke="#242424" stroke-linecap="round" stroke-linejoin="round"/>
<path d="M19.5034 20.25L17.6284 18.375" stroke="#242424" stroke-linecap="round" stroke-linejoin="round"/>
<path d="M4.50342 20.25L6.37843 18.375" stroke="#242424" stroke-linecap="round" stroke-linejoin="round"/>
</svg>
