<svg width="16" height="18" viewBox="0 0 16 18" fill="none" xmlns="http://www.w3.org/2000/svg">
<path d="M5.61994 16.3185V13.7628C5.61993 13.1152 6.14655 12.589 6.79886 12.5849H9.19401C9.84923 12.5849 10.3804 13.1123 10.3804 13.7628V16.3111C10.3804 16.8728 10.8368 17.3293 11.4026 17.3334H13.0367C13.7999 17.3354 14.5325 17.0357 15.0728 16.5007C15.6132 15.9656 15.9168 15.239 15.9168 14.4814V7.22162C15.9168 6.60957 15.6436 6.02901 15.1707 5.63633L9.61931 1.22864C8.64892 0.457683 7.26297 0.482588 6.32132 1.2879L0.88934 5.63633C0.394113 6.01743 0.098123 6.59972 0.0834961 7.22162V14.4739C0.0834961 16.0532 1.37298 17.3334 2.96364 17.3334H4.5604C4.83281 17.3354 5.09474 17.2293 5.28806 17.0388C5.48138 16.8482 5.5901 16.589 5.59009 16.3185H5.61994Z" fill="#200E32"/>
</svg>
