<svg width="16" height="14" viewBox="0 0 16 14" fill="none" xmlns="http://www.w3.org/2000/svg">
<path d="M14.4747 8.70453C13.8659 7.99366 13.5893 7.37763 13.5893 6.33105V5.97519C13.5893 4.61136 13.2754 3.73264 12.593 2.85391C11.5411 1.48924 9.7704 0.666748 8.03694 0.666748H7.96323C6.26621 0.666748 4.55097 1.45147 3.48091 2.76075C2.76119 3.6571 2.41085 4.57359 2.41085 5.97519V6.33105C2.41085 7.37763 2.15245 7.99366 1.52549 8.70453C1.06417 9.22824 0.916748 9.90134 0.916748 10.6298C0.916748 11.3592 1.1561 12.0499 1.63647 12.6114C2.26343 13.2845 3.1488 13.7142 4.05321 13.7889C5.36262 13.9383 6.67203 13.9945 8.0005 13.9945C9.32813 13.9945 10.6375 13.9005 11.9478 13.7889C12.8514 13.7142 13.7367 13.2845 14.3637 12.6114C14.8432 12.0499 15.0834 11.3592 15.0834 10.6298C15.0834 9.90134 14.936 9.22824 14.4747 8.70453" fill="#323B4B"/>
</svg>
