<svg width="52" height="48" viewBox="0 0 52 48" fill="none" xmlns="http://www.w3.org/2000/svg">
<rect width="52" height="48" rx="10" fill="#FFAB00"/>
<path fill-rule="evenodd" clip-rule="evenodd" d="M21.7599 18.2138C21.7599 17.1268 20.8646 16.2419 19.7623 16.2419C18.6611 16.2419 17.7647 17.1268 17.7647 18.2138C17.7647 19.3007 18.6611 20.1856 19.7623 20.1856C20.8646 20.1856 21.7599 19.3007 21.7599 18.2138ZM23.5246 18.2138C23.5246 20.2611 21.8375 21.9275 19.7623 21.9275C17.6882 21.9275 16 20.2611 16 18.2138C16 16.1664 17.6882 14.5 19.7623 14.5C21.8375 14.5 23.5246 16.1664 23.5246 18.2138ZM36 18.214C36 17.7332 35.6047 17.343 35.1177 17.343H27.8825C27.3954 17.343 27.0002 17.7332 27.0002 18.214C27.0002 18.6948 27.3954 19.085 27.8825 19.085H35.1177C35.6047 19.085 36 18.6948 36 18.214ZM30.2397 29.7862C30.2397 30.8732 31.135 31.7581 32.2374 31.7581C33.3397 31.7581 34.235 30.8732 34.235 29.7862C34.235 28.6981 33.3397 27.8144 32.2374 27.8144C31.135 27.8144 30.2397 28.6981 30.2397 29.7862ZM28.4751 29.7862C28.4751 27.7377 30.1621 26.0725 32.2374 26.0725C34.3126 26.0725 35.9996 27.7377 35.9996 29.7862C35.9996 31.8336 34.3126 33.5 32.2374 33.5C30.1621 33.5 28.4751 31.8336 28.4751 29.7862ZM16.8832 28.9149H24.1172C24.6042 28.9149 24.9995 29.3051 24.9995 29.7859C24.9995 30.2667 24.6042 30.6568 24.1172 30.6568H16.8832C16.3961 30.6568 16.0008 30.2667 16.0008 29.7859C16.0008 29.3051 16.3961 28.9149 16.8832 28.9149Z" fill="#323B4B"/>
</svg>
